<?xml version="1.0" standalone="no"?>
<!DOCTYPE svg PUBLIC "-//W3C//DTD SVG 20010904//EN"
 "http://www.w3.org/TR/2001/REC-SVG-20010904/DTD/svg10.dtd">
<svg version="1.0" xmlns="http://www.w3.org/2000/svg"
 width="1240.000000pt" height="1244.000000pt" viewBox="0 0 1240.000000 1244.000000"
 preserveAspectRatio="xMidYMid meet">

<circle cx="50%" cy="50%" r="50%" fill="#F9F6F5" /> 

<g transform="translate(0.000000,1244.000000) scale(0.100000,-0.100000)"
fill="#000000" stroke="none">
<path d="M7148 11750 c-157 -28 -352 -150 -530 -334 l-78 -79 -79 18 c-97 22
-218 16 -305 -14 l-59 -21 -71 68 c-170 163 -370 262 -532 262 -46 0 -55 -4
-78 -30 -35 -42 -40 -84 -22 -164 24 -103 84 -220 164 -321 40 -49 72 -95 72
-101 0 -6 -35 -42 -77 -80 -67 -60 -203 -184 -378 -345 -211 -193 -316 -289
-421 -381 -66 -58 -134 -122 -151 -142 -32 -35 -86 -188 -179 -506 -55 -190
-58 -196 -123 -234 -72 -42 -311 -193 -418 -262 -46 -30 -85 -54 -88 -54 -2 0
-49 -29 -102 -64 -54 -35 -159 -101 -233 -148 -201 -126 -216 -137 -229 -164
-19 -43 -13 -74 22 -108 37 -38 32 -37 447 -57 260 -12 325 -19 325 -36 0 -6
-38 -51 -85 -100 -47 -49 -140 -150 -206 -224 -67 -74 -176 -192 -243 -263
-109 -116 -121 -133 -121 -165 1 -42 37 -103 345 -576 50 -77 100 -154 110
-172 11 -17 37 -59 59 -93 l38 -61 -59 -97 c-33 -53 -103 -164 -155 -247 -131
-208 -148 -238 -148 -266 0 -13 39 -136 86 -274 110 -321 285 -839 330 -979
70 -212 93 -246 169 -246 44 0 48 3 137 93 50 50 125 129 166 175 41 45 78 82
82 82 7 0 41 -49 142 -205 116 -180 140 -223 132 -237 -9 -14 -115 -150 -124
-158 -3 -3 -18 -23 -34 -45 -17 -22 -38 -49 -47 -60 -38 -44 -317 -384 -365
-445 -99 -126 -114 -172 -73 -223 29 -38 70 -55 424 -176 94 -33 252 -96 264
-107 2 -2 -32 -47 -76 -101 -175 -216 -293 -388 -293 -424 0 -33 34 -75 92
-115 24 -16 48 -33 53 -37 6 -4 94 -65 196 -135 103 -70 285 -194 405 -277
121 -82 252 -171 291 -197 40 -26 73 -53 73 -60 0 -6 -8 -21 -19 -32 -40 -45
-111 -160 -111 -180 0 -51 61 -96 128 -96 56 0 71 16 200 205 156 231 253 370
340 485 37 50 85 115 107 146 37 52 110 153 388 529 57 77 161 219 232 315 71
96 167 226 214 288 47 62 100 133 116 156 17 24 40 56 52 72 26 32 747 999
833 1115 30 41 88 116 128 168 91 117 157 213 154 224 -7 24 27 -9 128 -123
111 -124 371 -420 398 -452 11 -14 11 -20 -1 -45 -8 -15 -31 -93 -51 -171 -21
-79 -42 -156 -48 -170 -6 -15 -27 -90 -48 -167 -89 -329 -110 -399 -120 -409
-7 -7 -172 -6 -516 1 -299 7 -516 8 -529 3 -36 -14 -60 -58 -59 -107 1 -34 11
-57 47 -110 58 -85 132 -192 151 -218 40 -54 239 -342 247 -357 11 -20 12 -20
-256 -182 -88 -53 -195 -119 -238 -147 -43 -27 -81 -49 -83 -49 -3 0 -17 -9
-32 -19 -28 -20 -554 -349 -652 -408 -30 -18 -62 -37 -70 -43 -8 -5 -60 -37
-115 -71 -201 -123 -215 -134 -231 -167 -32 -68 29 -149 105 -138 30 5 172 79
205 107 13 11 95 62 176 109 30 18 78 47 105 65 28 18 95 60 150 95 55 34 116
73 135 85 19 13 67 41 105 64 39 23 97 59 130 80 251 159 574 359 711 441 112
66 136 117 91 193 -28 47 -281 420 -317 467 -15 19 -35 48 -46 64 l-18 29 454
-6 c349 -5 461 -4 480 6 37 18 64 83 110 257 22 85 43 162 45 170 2 8 27 96
54 195 89 327 118 426 127 435 5 5 120 -46 269 -120 948 -471 1150 -573 1161
-588 6 -9 33 -86 58 -172 26 -85 64 -211 86 -280 21 -69 61 -201 90 -295 29
-93 69 -226 90 -295 69 -227 78 -249 119 -276 46 -30 88 -25 131 16 37 34 39
75 10 158 -11 31 -36 113 -56 182 -19 69 -39 134 -44 145 -5 11 -28 83 -51
160 -23 77 -60 199 -82 270 -21 72 -58 195 -82 275 -61 205 -82 256 -113 278
-26 18 -277 143 -787 392 -137 67 -380 187 -540 266 l-290 143 -109 123 c-317
357 -541 593 -576 608 -28 12 -34 11 -61 -9 l-29 -22 -1 318 c0 175 -1 353 -2
396 -1 42 1 77 4 77 6 0 70 -66 334 -343 93 -99 182 -185 197 -193 40 -21 83
-17 112 9 35 31 236 417 831 1593 176 347 217 436 212 457 -9 35 -48 72 -180
171 -136 102 -211 159 -257 196 -19 15 -93 72 -165 125 -111 84 -277 211 -310
238 -5 4 -62 46 -125 93 -157 117 -155 115 -174 214 -8 47 -27 139 -40 205
-14 66 -39 192 -57 280 -78 404 -99 503 -108 526 -12 34 -42 57 -281 221 -277
190 -445 306 -506 348 -141 98 -180 125 -189 132 -5 5 -28 20 -50 35 -146 96
-366 247 -395 271 l-35 30 51 53 c129 138 212 293 221 412 5 68 4 74 -26 114
-52 72 -95 89 -183 73z m-8 -223 c0 -13 -76 -148 -89 -157 -3 -3 -24 -28 -44
-57 -21 -28 -62 -74 -92 -101 -45 -42 -66 -53 -132 -70 -116 -30 -143 -35
-143 -23 0 21 179 208 270 282 81 66 197 138 223 139 4 0 7 -6 7 -13z m-1420
-145 c100 -65 258 -238 236 -259 -10 -10 -104 9 -134 27 -49 30 -202 232 -202
268 0 19 33 7 100 -36z m555 -242 c3 -5 1 -10 -4 -10 -6 0 -11 5 -11 10 0 6 2
10 4 10 3 0 8 -4 11 -10z m696 -213 c24 -18 57 -41 74 -52 16 -10 34 -22 40
-27 5 -5 82 -59 170 -120 88 -61 219 -152 290 -203 210 -148 388 -273 579
-406 99 -68 191 -136 205 -150 21 -20 30 -44 40 -105 15 -92 65 -355 122 -635
21 -107 39 -205 39 -217 0 -16 -8 -22 -32 -26 -55 -9 -730 -64 -1108 -91 -195
-14 -361 -28 -369 -30 -11 -4 -12 10 -7 82 11 135 35 410 52 595 l16 166 -47
149 c-27 81 -51 153 -55 158 -4 6 -24 62 -44 125 -20 63 -41 124 -46 135 -6
11 -26 65 -44 120 -41 117 -122 341 -159 438 l-26 68 25 9 c14 6 33 10 42 10
9 0 49 9 87 19 96 26 106 26 156 -12z m-916 -36 c83 -6 201 -10 263 -9 86 1
116 -2 126 -13 8 -8 41 -93 75 -189 90 -261 150 -429 172 -485 10 -27 53 -147
95 -265 l75 -215 -10 -100 c-6 -55 -16 -142 -21 -194 -5 -51 -11 -96 -13 -98
-8 -7 -1668 68 -1809 82 -20 2 -115 7 -212 11 -118 4 -176 11 -176 18 0 16 73
293 109 411 20 68 37 106 53 118 60 49 250 221 368 333 86 82 550 507 629 577
39 35 47 38 85 33 22 -3 109 -10 191 -15z m-1335 -1691 c113 -6 234 -12 270
-15 73 -5 390 -22 580 -30 202 -9 710 -34 905 -45 241 -14 309 -20 318 -29 4
-4 3 -39 -3 -77 -5 -38 -10 -88 -10 -111 0 -23 -5 -45 -10 -48 -6 -3 -101 -24
-213 -45 -177 -33 -585 -115 -627 -126 -146 -36 -320 -67 -375 -68 -38 -1
-142 2 -230 7 -88 4 -295 14 -460 22 -165 8 -330 17 -367 20 -36 3 -102 8
-145 10 -43 3 -121 7 -173 10 -52 3 -185 10 -294 15 -110 6 -201 12 -204 15
-2 2 16 17 42 32 25 15 110 69 189 119 78 50 219 139 312 198 94 60 186 119
205 131 39 26 60 34 75 29 6 -2 102 -8 215 -14z m4153 -592 c111 -84 204 -155
207 -158 3 -3 84 -65 180 -137 364 -276 445 -341 442 -354 -6 -22 -505 -1026
-602 -1209 -48 -91 -124 -237 -169 -325 -45 -88 -86 -163 -90 -167 -3 -4 -225
212 -493 480 l-486 487 -6 85 c-3 47 -13 186 -21 310 -8 124 -20 268 -26 320
-19 175 -57 735 -50 743 4 4 97 14 207 22 109 8 224 17 254 21 158 17 323 31
383 33 l68 1 202 -152z m-1342 32 c4 -19 15 -125 24 -235 9 -110 20 -245 25
-300 5 -55 23 -264 39 -465 17 -201 33 -401 37 -445 l7 -80 188 -191 189 -192
1 -158 c0 -88 2 -397 4 -687 l3 -528 -22 -27 c-13 -15 -92 -119 -176 -232 -85
-113 -157 -207 -160 -210 -3 -3 -17 -21 -30 -40 -13 -19 -128 -174 -255 -345
-127 -170 -296 -398 -375 -505 -79 -107 -148 -199 -152 -205 -14 -16 -190
-255 -232 -314 -21 -30 -43 -59 -48 -65 -5 -6 -30 -40 -55 -76 -26 -36 -70
-96 -98 -135 -84 -114 -187 -257 -230 -318 -22 -31 -44 -56 -48 -57 -4 0 -19
24 -31 52 -13 29 -85 178 -160 332 -75 153 -136 280 -136 282 0 2 -34 72 -76
156 -42 84 -110 225 -151 313 -105 223 -152 322 -217 457 -31 65 -56 122 -56
128 0 14 22 13 63 -5 83 -35 79 -37 335 220 129 129 236 235 239 235 6 0 104
-75 268 -205 151 -121 173 -135 205 -135 31 0 74 53 105 129 16 36 40 89 55
116 15 28 40 83 56 122 16 40 36 83 46 95 l16 22 99 -47 c108 -52 159 -65 190
-48 28 15 66 97 103 226 18 61 36 115 40 120 4 6 29 81 55 168 26 86 53 164
59 172 10 14 20 14 96 -5 113 -26 133 -26 171 8 25 23 33 38 36 78 9 90 -20
108 -225 139 -135 20 -180 19 -219 -4 -34 -22 -40 -36 -144 -381 -60 -199 -81
-262 -90 -273 -3 -5 -57 14 -119 42 -61 28 -122 51 -134 51 -34 0 -71 -47
-111 -140 -20 -46 -39 -89 -44 -95 -4 -5 -27 -54 -51 -107 -23 -54 -46 -98
-49 -98 -3 0 -19 13 -36 28 -114 105 -471 364 -668 483 -119 72 -404 247 -447
274 -19 12 -52 32 -72 44 l-38 23 0 175 0 175 222 246 c122 136 255 282 296
326 40 43 80 92 88 108 20 39 11 88 -22 119 l-26 24 -346 5 c-191 3 -461 6
-600 5 l-254 0 -24 -28 c-26 -31 -32 -94 -13 -143 11 -32 198 -297 361 -514
l109 -145 -3 -180 c-3 -203 3 -184 -97 -290 -25 -27 -179 -193 -340 -368 -162
-174 -295 -316 -297 -314 -5 5 -40 107 -69 202 -14 44 -40 125 -59 180 -92
268 -256 775 -256 791 0 11 36 75 81 144 44 69 93 145 107 169 15 24 63 100
108 170 44 69 98 158 120 196 l39 70 3 433 3 432 78 0 c43 0 166 -3 273 -7
l196 -6 4 -133 c3 -146 8 -157 73 -188 26 -12 68 -16 187 -16 239 0 248 10
248 282 0 155 -2 176 -20 206 -11 18 -32 37 -46 42 -14 6 -242 16 -506 24
-263 8 -481 16 -482 18 -7 9 17 414 24 422 6 6 126 3 307 -7 164 -9 456 -24
648 -33 l350 -17 175 36 c196 40 541 111 880 182 206 43 248 48 505 65 154 10
300 17 325 16 42 -1 45 -3 51 -36z m-3495 -1055 c0 -300 -2 -545 -5 -545 -3 0
-39 53 -79 118 -41 64 -123 194 -183 287 -61 94 -118 186 -129 206 l-18 35 36
40 c20 21 86 93 147 159 60 66 133 145 162 175 29 30 53 58 53 62 0 4 4 8 8 8
5 0 9 -245 8 -545z m1072 -2013 c23 -15 109 -67 190 -116 81 -50 194 -120 252
-157 58 -37 138 -89 178 -114 39 -26 72 -51 72 -56 0 -4 -82 -90 -182 -189
l-183 -181 -63 68 c-35 37 -89 106 -120 153 -56 82 -59 85 -99 88 -58 4 -80
-11 -94 -61 -16 -63 -65 -159 -93 -186 l-25 -24 -18 33 c-10 18 -34 58 -54 89
-114 177 -179 283 -179 291 0 15 351 390 364 389 6 0 30 -13 54 -27z m6 -1031
c14 -21 37 -67 51 -102 15 -35 35 -77 45 -94 10 -16 30 -58 44 -92 14 -34 55
-122 92 -195 36 -73 80 -167 99 -208 44 -99 385 -820 490 -1035 l83 -170 -34
-50 c-35 -52 -87 -125 -117 -166 -9 -13 -46 -64 -82 -114 -36 -49 -70 -90 -75
-90 -6 0 -58 33 -118 73 -101 68 -496 336 -717 487 -55 37 -108 76 -119 85
-22 22 -28 12 139 226 60 78 136 175 167 215 84 107 89 169 20 212 -20 13
-174 70 -342 126 -168 56 -311 106 -319 110 -11 7 -3 22 35 69 42 51 279 334
309 369 5 6 77 95 160 197 82 102 153 186 157 186 4 0 19 -17 32 -39z"/>
<path d="M5918 8145 c-62 -35 -75 -115 -29 -167 27 -30 35 -33 112 -39 46 -4
172 -8 279 -10 107 -1 228 -4 268 -8 l74 -6 1 -210 c2 -202 3 -211 25 -242 32
-45 71 -53 247 -53 127 0 153 3 170 18 49 41 50 45 55 271 l5 216 95 5 c127 7
159 30 160 114 0 20 -11 39 -34 61 l-35 33 -328 6 c-180 3 -371 8 -423 11 -52
2 -212 7 -355 10 -224 5 -264 3 -287 -10z"/>
<path d="M2330 8244 c-47 -19 -132 -53 -190 -75 -58 -23 -109 -44 -115 -49 -5
-4 -48 -22 -95 -40 -80 -30 -100 -38 -182 -74 -18 -8 -58 -24 -88 -36 -30 -11
-68 -27 -85 -34 -16 -8 -69 -30 -117 -51 -47 -20 -94 -45 -102 -54 -9 -10 -26
-60 -37 -112 -11 -52 -23 -103 -25 -114 -3 -11 -22 -111 -44 -223 -21 -111
-43 -217 -49 -235 -20 -63 -72 -406 -65 -431 7 -28 773 -789 817 -812 20 -11
42 -6 153 30 71 23 160 55 198 70 39 16 72 24 77 19 5 -5 29 -106 53 -224 25
-117 60 -286 80 -374 20 -88 36 -169 36 -180 0 -18 -21 -24 -228 -64 -125 -24
-240 -49 -257 -56 -40 -16 -59 -40 -85 -104 -11 -30 -30 -73 -40 -96 -10 -23
-29 -66 -40 -96 -26 -64 -106 -250 -161 -371 -21 -47 -39 -89 -39 -93 0 -3
-11 -30 -24 -58 -14 -29 -46 -101 -72 -162 -25 -60 -58 -137 -71 -170 -40 -94
-40 -126 1 -235 19 -52 76 -205 126 -340 50 -135 111 -301 135 -370 24 -69 67
-186 95 -260 28 -74 68 -183 88 -242 l36 -107 -23 -58 c-13 -32 -40 -92 -59
-133 -51 -111 -72 -168 -72 -195 0 -56 97 -117 152 -96 37 14 57 44 98 143 21
51 56 137 78 190 22 53 43 111 47 127 8 36 -20 125 -127 411 -39 102 -88 237
-109 300 -22 63 -44 124 -49 135 -5 11 -25 63 -44 115 -91 257 -128 358 -141
385 -8 17 -19 51 -26 76 -11 43 -10 48 41 169 58 138 140 328 175 405 13 28
37 86 55 130 18 44 36 85 41 90 4 6 22 46 39 90 17 44 40 99 51 122 10 23 19
46 19 51 0 5 9 21 20 34 14 19 32 27 69 31 28 3 133 22 233 41 101 19 251 47
333 61 83 15 181 33 218 42 40 9 72 12 77 7 9 -10 70 -361 70 -405 0 -32 20
-26 -230 -70 -533 -93 -547 -97 -570 -139 -29 -53 0 -125 60 -150 30 -12 113
-6 210 15 14 3 135 23 270 45 135 22 279 46 320 54 58 12 78 12 86 3 12 -12
61 -413 52 -422 -2 -3 -146 -25 -319 -50 -173 -25 -325 -47 -339 -51 -14 -3
-38 -7 -55 -9 -114 -13 -175 -55 -175 -119 0 -42 37 -98 73 -110 24 -9 108 -1
222 20 11 2 121 19 245 38 124 19 258 40 299 46 57 9 75 9 81 0 10 -16 34
-239 35 -315 l0 -60 -115 -16 c-63 -10 -173 -29 -245 -43 -71 -14 -174 -32
-228 -41 -111 -17 -126 -23 -156 -61 -25 -31 -27 -74 -6 -114 19 -36 43 -50
88 -50 33 0 186 21 280 39 47 8 49 8 59 -18 5 -14 25 -96 43 -181 69 -317 85
-372 118 -404 26 -25 35 -28 79 -24 88 9 110 55 83 173 -31 137 -95 480 -93
494 2 11 38 20 128 33 148 21 164 27 186 70 15 30 16 45 6 148 -7 63 -23 237
-37 385 -13 149 -29 304 -35 345 -5 41 -19 165 -31 274 -11 110 -25 208 -30
218 -14 26 -42 38 -88 38 -22 0 -42 4 -45 9 -4 5 -20 101 -36 213 -53 356 -68
410 -118 429 -27 11 -107 -1 -370 -52 -57 -12 -106 -18 -109 -15 -3 3 -20 83
-38 178 -30 155 -99 509 -121 613 -4 22 -8 44 -8 49 -1 8 160 69 335 126 96
31 139 52 158 74 12 14 35 90 47 151 3 17 25 129 51 250 25 121 58 285 73 365
16 80 37 187 48 237 11 51 17 104 15 117 -3 16 -88 106 -232 247 -597 585
-622 609 -659 609 -15 0 -65 -16 -112 -36z m429 -538 l345 -344 -38 -189
c-109 -540 -126 -622 -138 -668 l-13 -50 -80 -31 c-44 -17 -87 -33 -95 -37
-25 -10 -259 -95 -380 -138 -63 -22 -133 -49 -155 -58 -22 -10 -71 -28 -109
-40 -62 -20 -70 -21 -90 -7 -11 9 -162 154 -335 324 l-314 308 17 95 c9 52 26
130 36 174 10 44 33 154 50 245 17 91 37 190 44 220 8 30 19 83 26 118 15 71
-7 56 200 142 63 27 165 69 225 95 61 25 153 63 205 85 52 21 124 52 160 69
36 16 71 30 79 31 8 0 170 -155 360 -344z"/>
</g>
</svg>
