<?xml version="1.0" encoding="UTF-8" standalone="no"?>
<svg
   height="100"
   viewBox="0 0 358.97321 224.10585"
   width="160"
   version="1.1"
   id="svg34"
   xmlns="http://www.w3.org/2000/svg"
   xmlns:svg="http://www.w3.org/2000/svg">
  <defs
     id="defs38" />
  <g
     id="g1049"
     transform="translate(-239.5084,-187.94208)">
    <path
       d="m 477.5,197.58 h 27 v 81 h -81.2 v -27 h 27 v -27 h 27.2 z"
       id="path4" />
    <path
       d="m 374,278.58 c 22.37,0 40.5,-18.13 40.5,-40.5 0,-22.37 -18.13,-40.5 -40.5,-40.5 -22.37,0 -40.5,18.14 -40.5,40.5 H 374 Z"
       id="path6" />
    <path
       d="m 333.5,328.08 c 0,-22.37 18.13,-40.5 40.5,-40.5 h 40.5 v 40.5 z"
       id="path8" />
    <circle
       cx="484.25"
       cy="307.82999"
       r="20.25"
       id="circle10" />
    <path
       d="m 248.31,401.28 v -4 c 0,-2.46 0.42,-4.48 1.26,-6.07 0.85,-1.58 2.04,-2.87 3.62,-3.87 1.57,-0.99 3.46,-1.83 5.69,-2.5 l 3.09,-0.96 c 1.39,-0.44 2.56,-0.98 3.56,-1.62 0.99,-0.64 1.76,-1.44 2.3,-2.4 0.54,-0.96 0.81,-2.08 0.81,-3.37 v -0.2 c 0,-1.99 -0.68,-3.55 -2.03,-4.68 -1.35,-1.12 -3.11,-1.69 -5.31,-1.69 -2.2,0 -4.09,0.6 -5.48,1.82 -1.4,1.22 -2.1,3 -2.1,5.36 v 0.81 h -5.26 v -0.76 c 0,-2.57 0.56,-4.73 1.66,-6.5 1.12,-1.77 2.65,-3.12 4.6,-4.07 1.95,-0.95 4.15,-1.41 6.57,-1.41 2.42,0 4.59,0.45 6.5,1.37 1.9,0.91 3.4,2.19 4.5,3.84 1.1,1.65 1.65,3.59 1.65,5.81 v 0.46 c 0,2.29 -0.46,4.19 -1.37,5.72 -0.91,1.52 -2.17,2.76 -3.76,3.74 -1.6,0.98 -3.45,1.8 -5.54,2.47 l -2.98,0.91 c -1.58,0.48 -2.85,0.99 -3.82,1.54 -0.96,0.56 -1.66,1.22 -2.12,2 -0.46,0.77 -0.68,1.77 -0.68,2.98 v 0.5 h 19.97 v 4.75 H 248.3 Z"
       id="path12" />
    <path
       d="m 294.71,401.7 v -7.23 h -17.89 v -6.17 l 13.54,-21.99 h 9.66 v 23.45 h 5.97 v 4.7 h -5.97 v 7.23 h -5.31 z m -12.74,-11.93 h 12.74 v -20.12 h -0.81 l -11.93,19.41 z"
       id="path14" />
    <path
       d="m 325.19,402.41 c -2.66,0 -5.02,-0.48 -7.07,-1.41 -2.05,-0.94 -3.66,-2.33 -4.82,-4.17 -1.16,-1.84 -1.75,-4.07 -1.75,-6.7 v -1.26 h 5.41 v 1.26 c 0,2.49 0.75,4.37 2.25,5.61 1.5,1.25 3.49,1.87 5.99,1.87 2.5,0 4.43,-0.53 5.72,-1.59 1.28,-1.06 1.92,-2.44 1.92,-4.12 0,-1.12 -0.31,-2.02 -0.91,-2.73 -0.6,-0.71 -1.47,-1.27 -2.57,-1.69 -1.12,-0.42 -2.45,-0.82 -4,-1.19 l -1.87,-0.46 c -2.26,-0.54 -4.22,-1.21 -5.89,-2 -1.67,-0.79 -2.96,-1.84 -3.87,-3.16 -0.91,-1.31 -1.37,-3 -1.37,-5.06 0,-2.06 0.51,-3.88 1.54,-5.36 1.03,-1.48 2.45,-2.63 4.27,-3.44 1.82,-0.81 3.96,-1.22 6.42,-1.22 2.46,0 4.66,0.42 6.6,1.26 1.93,0.85 3.47,2.09 4.57,3.74 1.12,1.66 1.67,3.73 1.67,6.22 v 1.82 h -5.41 v -1.82 c 0,-1.52 -0.32,-2.74 -0.94,-3.69 -0.62,-0.94 -1.49,-1.64 -2.6,-2.07 -1.11,-0.43 -2.41,-0.66 -3.9,-0.66 -2.16,0 -3.83,0.45 -5.03,1.34 -1.2,0.89 -1.79,2.13 -1.79,3.72 0,1.08 0.26,1.96 0.78,2.66 0.52,0.69 1.29,1.26 2.3,1.69 1.01,0.43 2.28,0.83 3.79,1.16 l 1.87,0.45 c 2.3,0.5 4.31,1.15 6.07,1.94 1.75,0.79 3.13,1.86 4.15,3.21 1.01,1.35 1.52,3.09 1.52,5.21 0,2.12 -0.53,3.98 -1.59,5.56 -1.06,1.58 -2.57,2.83 -4.53,3.72 -1.96,0.89 -4.27,1.34 -6.93,1.34 z"
       id="path16" />
    <path
       d="m 354.89,402.41 c -2.53,0 -4.73,-0.53 -6.62,-1.59 -1.89,-1.06 -3.37,-2.57 -4.42,-4.5 -1.06,-1.93 -1.59,-4.18 -1.59,-6.75 v -0.6 c 0,-2.59 0.52,-4.86 1.57,-6.79 1.05,-1.93 2.5,-3.44 4.37,-4.5 1.87,-1.06 4.03,-1.59 6.5,-1.59 2.47,0 4.49,0.53 6.29,1.59 1.8,1.06 3.21,2.54 4.22,4.42 1.01,1.89 1.51,4.09 1.51,6.62 v 1.97 h -19.16 c 0.06,2.19 0.8,3.93 2.2,5.23 1.4,1.3 3.14,1.94 5.23,1.94 1.95,0 3.43,-0.44 4.42,-1.31 0.99,-0.87 1.76,-1.89 2.3,-3.03 l 4.29,2.22 c -0.47,0.94 -1.15,1.93 -2.04,2.98 -0.89,1.05 -2.06,1.92 -3.51,2.63 -1.45,0.71 -3.3,1.06 -5.56,1.06 z m -7.28,-15.71 h 13.8 c -0.13,-1.89 -0.81,-3.37 -2.02,-4.42 -1.22,-1.06 -2.8,-1.59 -4.75,-1.59 -1.95,0 -3.55,0.53 -4.78,1.59 -1.23,1.06 -1.98,2.54 -2.25,4.42 z"
       id="path18" />
    <path
       d="m 377.23,401.7 -8.39,-24.92 h 5.51 l 6.62,21.08 h 0.81 l 6.62,-21.08 h 5.51 l -8.39,24.92 h -8.3 z"
       id="path20" />
    <path
       d="m 408.63,402.41 c -2.53,0 -4.73,-0.53 -6.62,-1.59 -1.89,-1.06 -3.37,-2.57 -4.42,-4.5 -1.06,-1.93 -1.59,-4.18 -1.59,-6.75 v -0.6 c 0,-2.59 0.52,-4.86 1.57,-6.79 1.05,-1.93 2.5,-3.44 4.37,-4.5 1.87,-1.06 4.03,-1.59 6.5,-1.59 2.47,0 4.49,0.53 6.29,1.59 1.8,1.06 3.21,2.54 4.22,4.42 1.01,1.89 1.51,4.09 1.51,6.62 v 1.97 H 401.3 c 0.06,2.19 0.8,3.93 2.2,5.23 1.4,1.3 3.14,1.94 5.23,1.94 1.95,0 3.43,-0.44 4.42,-1.31 0.99,-0.87 1.76,-1.89 2.3,-3.03 l 4.29,2.22 c -0.47,0.94 -1.15,1.93 -2.04,2.98 -0.89,1.05 -2.06,1.92 -3.51,2.63 -1.45,0.71 -3.3,1.06 -5.56,1.06 z m -7.28,-15.71 h 13.8 c -0.13,-1.89 -0.81,-3.37 -2.03,-4.42 -1.22,-1.06 -2.8,-1.59 -4.75,-1.59 -1.95,0 -3.55,0.53 -4.78,1.59 -1.23,1.06 -1.98,2.54 -2.25,4.42 z"
       id="path22" />
    <path
       d="m 424.81,401.7 v -24.92 h 5.1 v 3.74 h 0.81 c 0.47,-1.01 1.31,-1.95 2.53,-2.83 1.22,-0.87 3.02,-1.31 5.41,-1.31 1.89,0 3.56,0.42 5.03,1.26 1.47,0.85 2.62,2.03 3.47,3.56 0.85,1.53 1.26,3.38 1.26,5.53 v 14.97 h -5.21 v -14.56 c 0,-2.16 -0.54,-3.75 -1.62,-4.78 -1.08,-1.03 -2.57,-1.54 -4.45,-1.54 -2.16,0 -3.89,0.71 -5.18,2.12 -1.3,1.41 -1.94,3.47 -1.94,6.17 v 12.59 z"
       id="path24" />
    <path
       d="m 468.19,402.41 c -4.35,0 -7.8,-1.22 -10.36,-3.66 -2.57,-2.44 -3.84,-5.98 -3.84,-10.59 v -8.29 c 0,-4.62 1.28,-8.14 3.84,-10.59 2.57,-2.45 6.01,-3.66 10.36,-3.66 4.35,0 7.81,1.22 10.39,3.66 2.57,2.45 3.87,5.98 3.87,10.59 v 8.29 c 0,4.62 -1.29,8.14 -3.87,10.59 -2.57,2.45 -6.04,3.66 -10.39,3.66 z m 0,-4.91 c 2.8,0 4.95,-0.82 6.47,-2.45 1.51,-1.64 2.28,-3.87 2.28,-6.7 v -8.69 c 0,-2.83 -0.76,-5.07 -2.28,-6.7 -1.52,-1.64 -3.67,-2.45 -6.47,-2.45 -2.8,0 -4.87,0.82 -6.42,2.45 -1.55,1.64 -2.32,3.87 -2.32,6.7 v 8.69 c 0,2.83 0.77,5.07 2.32,6.7 1.55,1.64 3.69,2.45 6.42,2.45 z"
       id="path26" />
    <path
       d="m 492.96,401.7 v -20.52 h -6.36 v -4.4 h 6.36 v -5.46 c 0,-1.52 0.46,-2.73 1.37,-3.64 0.91,-0.91 2.12,-1.37 3.64,-1.37 h 6.42 v 4.4 h -4.75 c -0.98,0 -1.47,0.5 -1.47,1.51 v 4.55 h 5.61 v 4.4 h -5.61 v 20.52 h -5.21 z m 16.38,0 v -20.52 h -5.56 v -4.4 h 5.56 v -5.46 c 0,-1.52 0.45,-2.73 1.34,-3.64 0.89,-0.91 2.12,-1.37 3.66,-1.37 h 6.07 v 4.4 h -4.4 c -0.98,0 -1.47,0.5 -1.47,1.51 v 4.55 h 11.17 v 4.4 h -11.17 v 20.52 h -5.21 z m 19.01,-28.16 c -1.01,0 -1.86,-0.32 -2.56,-0.99 -0.69,-0.66 -1.03,-1.51 -1.03,-2.56 0,-1.05 0.34,-1.93 1.03,-2.57 0.69,-0.64 1.54,-0.96 2.56,-0.96 1.02,0 1.85,0.32 2.53,0.96 0.68,0.64 1.01,1.5 1.01,2.57 0,1.07 -0.33,1.9 -1.01,2.56 -0.68,0.66 -1.52,0.99 -2.53,0.99 z m -2.63,28.16 v -24.92 h 5.21 v 24.92 z"
       id="path28" />
    <path
       d="m 549.19,402.41 c -2.39,0 -4.56,-0.5 -6.5,-1.52 -1.93,-1.01 -3.47,-2.48 -4.6,-4.4 -1.13,-1.92 -1.69,-4.23 -1.69,-6.93 v -0.66 c 0,-2.7 0.57,-4.99 1.69,-6.9 1.12,-1.9 2.66,-3.37 4.6,-4.4 1.93,-1.03 4.1,-1.54 6.5,-1.54 2.4,0 4.43,0.44 6.12,1.31 1.68,0.87 3.04,2.04 4.07,3.49 1.03,1.45 1.69,3.05 2,4.81 l -5.06,1.06 c -0.17,-1.12 -0.52,-2.12 -1.06,-3.03 -0.54,-0.91 -1.3,-1.64 -2.28,-2.18 -0.98,-0.54 -2.21,-0.81 -3.69,-0.81 -1.48,0 -2.75,0.33 -3.92,0.99 -1.17,0.66 -2.08,1.6 -2.75,2.83 -0.67,1.23 -1.01,2.72 -1.01,4.47 v 0.45 c 0,1.76 0.33,3.25 1.01,4.5 0.68,1.25 1.59,2.19 2.75,2.83 1.16,0.64 2.47,0.96 3.92,0.96 2.19,0 3.86,-0.57 5,-1.69 1.14,-1.12 1.87,-2.57 2.18,-4.32 l 5.06,1.16 c -0.41,1.72 -1.12,3.3 -2.15,4.75 -1.03,1.45 -2.38,2.6 -4.07,3.47 -1.68,0.86 -3.73,1.29 -6.12,1.29 z"
       id="path30" />
    <path
       d="m 577.86,402.41 c -2.53,0 -4.73,-0.53 -6.62,-1.59 -1.89,-1.06 -3.37,-2.57 -4.42,-4.5 -1.06,-1.93 -1.59,-4.18 -1.59,-6.75 v -0.6 c 0,-2.59 0.52,-4.86 1.57,-6.79 1.05,-1.93 2.5,-3.44 4.37,-4.5 1.87,-1.06 4.03,-1.59 6.5,-1.59 2.47,0 4.49,0.53 6.29,1.59 1.8,1.06 3.21,2.54 4.22,4.42 1.01,1.89 1.51,4.09 1.51,6.62 v 1.97 h -19.16 c 0.06,2.19 0.8,3.93 2.2,5.23 1.4,1.3 3.14,1.94 5.23,1.94 1.95,0 3.43,-0.44 4.42,-1.31 0.99,-0.87 1.76,-1.89 2.3,-3.03 l 4.29,2.22 c -0.47,0.94 -1.15,1.93 -2.04,2.98 -0.89,1.05 -2.06,1.92 -3.51,2.63 -1.45,0.71 -3.3,1.06 -5.56,1.06 z m -7.28,-15.71 h 13.8 c -0.13,-1.89 -0.81,-3.37 -2.03,-4.42 -1.22,-1.06 -2.8,-1.59 -4.75,-1.59 -1.95,0 -3.55,0.53 -4.78,1.59 -1.23,1.06 -1.98,2.54 -2.25,4.42 z"
       id="path32" />
  </g>
</svg>
