<svg xmlns="http://www.w3.org/2000/svg" xmlns:xlink="http://www.w3.org/1999/xlink" id="Layer_1" x="0px" y="0px" width="1920px" height="480px" viewBox="0 0 1920 480" style="enable-background:new 0 0 1920 480;" xml:space="preserve"><style type="text/css">	.st0{fill:#003253;}	.st1{fill:#ED0079;}	.st2{fill:none;stroke:#000000;stroke-width:0.25;stroke-miterlimit:10;}</style><g>	<path d="M539.3,310.3c-1.3,0-2.4-0.5-3.4-1.4c-0.9-0.9-1.4-2-1.4-3.4V177c0-1.4,0.5-2.6,1.4-3.6c0.9-0.9,2-1.4,3.4-1.4h57.3  c10.7,0,19.3,1.6,26.1,4.8c6.7,3.2,11.7,7.7,14.9,13.3c3.2,5.7,4.8,12.2,4.8,19.7c0,5-0.9,9.4-2.7,13.1c-1.8,3.8-3.9,6.8-6.5,9.2  c-2.6,2.4-5.1,4.2-7.6,5.5c5.1,2.4,9.7,6.3,13.6,11.8c3.9,5.5,5.9,12.1,5.9,19.7c0,7.9-1.8,14.9-5.3,21.1  c-3.6,6.2-8.8,11-15.8,14.5c-7,3.5-15.6,5.2-25.9,5.2H539.3z M562,228.8h31c7,0,12.2-1.7,15.7-5c3.5-3.4,5.2-7.7,5.2-13.1  c0-5.5-1.7-9.8-5.2-12.9c-3.5-3.1-8.7-4.6-15.7-4.6h-31V228.8z M562,289.4h33c7.1,0,12.5-1.9,16.2-5.8c3.7-3.9,5.5-8.6,5.5-14.1  c0-5.8-1.9-10.6-5.6-14.4c-3.8-3.8-9.1-5.7-16.1-5.7h-33V289.4z"></path>	<path d="M705.7,312.3c-8,0-15-1.8-20.8-5.4c-5.9-3.6-10.4-8.7-13.5-15.4c-3.2-6.6-4.7-14.5-4.7-23.6v-55.5c0-1.3,0.5-2.4,1.4-3.4  c0.9-0.9,2-1.4,3.4-1.4h17.4c1.4,0,2.6,0.5,3.5,1.4c0.9,0.9,1.3,2,1.3,3.4v54.3c0,16.3,7.2,24.5,21.5,24.5c6.8,0,12.3-2.2,16.3-6.5  c4-4.3,6-10.3,6-18v-54.3c0-1.3,0.5-2.4,1.4-3.4c0.9-0.9,2-1.4,3.4-1.4h17.4c1.3,0,2.4,0.5,3.4,1.4c0.9,0.9,1.4,2,1.4,3.4v93.2  c0,1.3-0.5,2.4-1.4,3.4c-0.9,0.9-2,1.4-3.4,1.4h-16c-1.5,0-2.6-0.5-3.5-1.4c-0.9-0.9-1.3-2-1.3-3.4v-8.1c-3.6,4.6-8,8.2-13.2,10.9  C720.2,311,713.6,312.3,705.7,312.3z"></path>	<path d="M829.1,312.3c-7.9,0-14.6-0.9-20.2-2.8c-5.6-1.8-10.2-4.1-13.7-6.9c-3.6-2.8-6.2-5.5-7.9-8.3c-1.7-2.8-2.6-5.1-2.8-6.9  c-0.1-1.5,0.3-2.6,1.3-3.5c1-0.9,2.1-1.3,3.3-1.3h15.6c0.5,0,1,0.1,1.4,0.2s0.9,0.5,1.6,1.2c1.7,1.5,3.5,3,5.4,4.5  c1.9,1.6,4.2,2.9,6.8,4c2.6,1.1,5.9,1.7,9.9,1.7c5.1,0,9.4-1,12.9-3.1c3.5-2,5.2-5,5.2-8.8c0-2.8-0.8-5-2.3-6.7  c-1.5-1.7-4.3-3.3-8.4-4.6c-4.1-1.4-9.9-2.9-17.4-4.4c-7.4-1.7-13.5-3.9-18.4-6.5c-4.9-2.6-8.5-5.9-10.9-9.9  c-2.4-3.9-3.6-8.6-3.6-13.8c0-5.1,1.5-10,4.6-14.7c3.1-4.7,7.7-8.5,13.8-11.5c6.1-3,13.7-4.5,22.8-4.5c7.1,0,13.3,0.9,18.6,2.7  c5.3,1.8,9.6,4,13.1,6.6c3.5,2.6,6.2,5.3,8,8c1.8,2.7,2.8,5,3,7c0.1,1.5-0.3,2.6-1.2,3.5c-0.9,0.9-2,1.3-3.2,1.3H852  c-0.7,0-1.3-0.1-1.8-0.4c-0.5-0.3-1.1-0.6-1.6-1c-1.5-1.3-3-2.7-4.7-4.2c-1.7-1.4-3.8-2.7-6.2-3.8s-5.6-1.7-9.6-1.7  c-5,0-8.8,1.1-11.5,3.3c-2.6,2.2-3.9,4.9-3.9,8.2c0,2.2,0.6,4.2,1.9,5.8c1.2,1.6,3.8,3.2,7.6,4.6c3.8,1.5,9.6,3,17.4,4.5  c8.8,1.6,15.8,3.9,21,7c5.2,3.1,8.9,6.6,11.1,10.7c2.2,4,3.3,8.5,3.3,13.3c0,5.9-1.7,11.3-5.2,16c-3.5,4.7-8.6,8.5-15.4,11.2  C847.5,310.9,839.1,312.3,829.1,312.3z"></path>	<path d="M899.2,190.6c-1.4,0-2.6-0.4-3.5-1.3c-0.9-0.9-1.3-2-1.3-3.5v-14.2c0-1.3,0.4-2.4,1.3-3.4c0.9-0.9,2-1.4,3.5-1.4h18  c1.4,0,2.6,0.5,3.6,1.4c0.9,0.9,1.4,2,1.4,3.4v14.2c0,1.5-0.5,2.6-1.4,3.5c-0.9,0.9-2.1,1.3-3.6,1.3H899.2z M900,310.3  c-1.3,0-2.4-0.5-3.4-1.4c-0.9-0.9-1.4-2-1.4-3.4v-93.2c0-1.3,0.5-2.4,1.4-3.4c0.9-0.9,2-1.4,3.4-1.4h16.4c1.4,0,2.6,0.5,3.5,1.4  c0.9,0.9,1.3,2,1.3,3.4v93.2c0,1.3-0.4,2.4-1.3,3.4c-0.9,0.9-2,1.4-3.5,1.4H900z"></path>	<path d="M952.1,310.3c-1.3,0-2.4-0.5-3.4-1.4c-0.9-0.9-1.4-2-1.4-3.4v-93.2c0-1.3,0.5-2.4,1.4-3.4c0.9-0.9,2-1.4,3.4-1.4h16.2  c1.3,0,2.4,0.5,3.4,1.4s1.4,2,1.4,3.4v8.1c3.4-4.2,7.8-7.7,13.1-10.6s11.9-4.2,19.8-4.2c8,0,15,1.8,20.9,5.4  c5.9,3.6,10.5,8.7,13.7,15.3c3.2,6.6,4.8,14.5,4.8,23.7v55.5c0,1.3-0.5,2.4-1.4,3.4c-0.9,0.9-2,1.4-3.4,1.4h-17.4  c-1.3,0-2.4-0.5-3.4-1.4c-0.9-0.9-1.4-2-1.4-3.4v-54.3c0-7.6-1.9-13.6-5.6-18c-3.8-4.3-9.2-6.5-16.3-6.5c-6.8,0-12.3,2.2-16.4,6.5  c-4.1,4.3-6.1,10.3-6.1,18v54.3c0,1.3-0.5,2.4-1.4,3.4c-0.9,0.9-2,1.4-3.4,1.4H952.1z"></path>	<path d="M1114.8,312.3c-14.6,0-26.2-4.2-34.8-12.6c-8.6-8.4-13.2-20.4-13.8-35.9c-0.1-1.3-0.2-3-0.2-5c0-2,0.1-3.7,0.2-4.8  c0.5-9.9,2.8-18.4,6.8-25.7c4-7.2,9.6-12.8,16.7-16.7c7.1-3.9,15.5-5.8,25.1-5.8c10.7,0,19.6,2.2,26.8,6.6  c7.2,4.4,12.7,10.5,16.4,18.4c3.7,7.8,5.5,16.9,5.5,27.1v4.1c0,1.3-0.5,2.4-1.4,3.4s-2.1,1.4-3.6,1.4h-65.6c0,0.8,0,1.3,0,1.6  c0.1,4.6,1,8.9,2.7,12.7c1.6,3.9,4.1,7,7.3,9.4c3.2,2.4,7.1,3.6,11.5,3.6c3.7,0,6.8-0.6,9.3-1.7c2.5-1.1,4.5-2.4,6.1-3.9  c1.6-1.4,2.7-2.6,3.4-3.6c1.2-1.6,2.1-2.5,2.9-2.9c0.7-0.3,1.8-0.5,3.3-0.5h17c1.3,0,2.4,0.4,3.3,1.2c0.9,0.8,1.2,1.8,1.1,3  c-0.1,2.1-1.2,4.7-3.3,7.7c-2,3-5,6-8.8,8.9c-3.8,2.9-8.6,5.3-14.3,7.2C1128.8,311.3,1122.2,312.3,1114.8,312.3z M1093.1,250.1  h43.6v-0.6c0-5.1-0.9-9.6-2.6-13.4c-1.7-3.8-4.2-6.8-7.5-9.1c-3.3-2.2-7.2-3.4-11.8-3.4c-4.6,0-8.6,1.1-11.8,3.4  c-3.3,2.2-5.8,5.3-7.4,9.1c-1.6,3.8-2.5,8.3-2.5,13.4V250.1z"></path>	<path d="M1223.4,312.3c-7.9,0-14.6-0.9-20.2-2.8s-10.2-4.1-13.7-6.9c-3.6-2.8-6.2-5.5-7.9-8.3c-1.7-2.8-2.6-5.1-2.8-6.9  c-0.1-1.5,0.3-2.6,1.3-3.5c1-0.9,2.1-1.3,3.3-1.3h15.6c0.5,0,1,0.1,1.4,0.2s0.9,0.5,1.6,1.2c1.7,1.5,3.5,3,5.4,4.5  c1.9,1.6,4.2,2.9,6.8,4c2.6,1.1,5.9,1.7,9.9,1.7c5.1,0,9.4-1,12.9-3.1c3.5-2,5.2-5,5.2-8.8c0-2.8-0.8-5-2.3-6.7  c-1.5-1.7-4.3-3.3-8.4-4.6c-4.1-1.4-9.9-2.9-17.4-4.4c-7.4-1.7-13.5-3.9-18.4-6.5c-4.9-2.6-8.5-5.9-10.9-9.9  c-2.4-3.9-3.6-8.6-3.6-13.8c0-5.1,1.5-10,4.6-14.7c3.1-4.7,7.7-8.5,13.8-11.5c6.1-3,13.7-4.5,22.8-4.5c7.1,0,13.3,0.9,18.6,2.7  c5.3,1.8,9.6,4,13.1,6.6c3.5,2.6,6.2,5.3,8,8c1.8,2.7,2.8,5,3,7c0.1,1.5-0.3,2.6-1.2,3.5c-0.9,0.9-2,1.3-3.2,1.3h-14.6  c-0.7,0-1.3-0.1-1.8-0.4c-0.5-0.3-1.1-0.6-1.6-1c-1.5-1.3-3-2.7-4.7-4.2c-1.7-1.4-3.8-2.7-6.2-3.8c-2.4-1.1-5.6-1.7-9.6-1.7  c-5,0-8.8,1.1-11.5,3.3c-2.6,2.2-3.9,4.9-3.9,8.2c0,2.2,0.6,4.2,1.9,5.8c1.2,1.6,3.8,3.2,7.6,4.6c3.8,1.5,9.6,3,17.4,4.5  c8.8,1.6,15.8,3.9,21,7c5.2,3.1,8.9,6.6,11.1,10.7c2.2,4,3.3,8.5,3.3,13.3c0,5.9-1.7,11.3-5.2,16c-3.5,4.7-8.6,8.5-15.4,11.2  C1241.8,310.9,1233.4,312.3,1223.4,312.3z"></path>	<path d="M1328.5,312.3c-7.9,0-14.6-0.9-20.2-2.8c-5.6-1.8-10.2-4.1-13.7-6.9c-3.6-2.8-6.2-5.5-7.9-8.3c-1.7-2.8-2.6-5.1-2.8-6.9  c-0.1-1.5,0.3-2.6,1.3-3.5c1-0.9,2.1-1.3,3.3-1.3h15.6c0.5,0,1,0.1,1.4,0.2s0.9,0.5,1.6,1.2c1.7,1.5,3.5,3,5.4,4.5  c1.9,1.6,4.2,2.9,6.8,4c2.6,1.1,5.9,1.7,9.9,1.7c5.1,0,9.4-1,12.9-3.1c3.5-2,5.2-5,5.2-8.8c0-2.8-0.8-5-2.3-6.7  c-1.5-1.7-4.3-3.3-8.4-4.6c-4.1-1.4-9.9-2.9-17.4-4.4c-7.4-1.7-13.5-3.9-18.4-6.5c-4.9-2.6-8.5-5.9-10.9-9.9  c-2.4-3.9-3.6-8.6-3.6-13.8c0-5.1,1.5-10,4.6-14.7c3.1-4.7,7.7-8.5,13.8-11.5c6.1-3,13.7-4.5,22.8-4.5c7.1,0,13.3,0.9,18.6,2.7  c5.3,1.8,9.6,4,13.1,6.6c3.5,2.6,6.2,5.3,8,8c1.8,2.7,2.8,5,3,7c0.1,1.5-0.3,2.6-1.2,3.5c-0.9,0.9-2,1.3-3.2,1.3h-14.6  c-0.7,0-1.3-0.1-1.8-0.4c-0.5-0.3-1.1-0.6-1.6-1c-1.4-1.3-3-2.7-4.7-4.2c-1.7-1.4-3.8-2.7-6.2-3.8c-2.4-1.1-5.6-1.7-9.6-1.7  c-5,0-8.8,1.1-11.4,3.3c-2.6,2.2-3.9,4.9-3.9,8.2c0,2.2,0.6,4.2,1.9,5.8c1.2,1.6,3.8,3.2,7.6,4.6c3.8,1.5,9.6,3,17.4,4.5  c8.8,1.6,15.8,3.9,21,7c5.2,3.1,8.9,6.6,11.1,10.7c2.2,4,3.3,8.5,3.3,13.3c0,5.9-1.7,11.3-5.2,16c-3.5,4.7-8.6,8.5-15.4,11.2  C1346.9,310.9,1338.5,312.3,1328.5,312.3z"></path>	<path d="M1446.9,310.3c-1.3,0-2.4-0.5-3.4-1.4c-0.9-0.9-1.4-2-1.4-3.4V177c0-1.4,0.5-2.6,1.4-3.6c0.9-0.9,2-1.4,3.4-1.4h15.2  c1.8,0,3.2,0.4,4,1.3c0.9,0.9,1.4,1.5,1.7,1.9l56.9,88.5V177c0-1.4,0.4-2.6,1.3-3.6c0.9-0.9,2-1.4,3.5-1.4h16.6  c1.4,0,2.6,0.5,3.6,1.4c0.9,0.9,1.4,2.1,1.4,3.6v128.3c0,1.5-0.5,2.6-1.4,3.6c-0.9,0.9-2,1.4-3.4,1.4h-15.4c-1.8,0-3.2-0.5-3.9-1.4  c-0.8-0.9-1.4-1.5-1.8-1.8l-56.7-86.5v84.9c0,1.3-0.5,2.4-1.4,3.4c-0.9,0.9-2.1,1.4-3.6,1.4H1446.9z"></path>	<path d="M1574.1,310.3c-1.2,0-2.2-0.4-3-1.2c-0.8-0.8-1.2-1.8-1.2-3c0-0.4,0.1-0.8,0.2-1.2s0.3-0.8,0.4-1.2l44.2-64l-41.5-61.2  c-0.4-0.8-0.6-1.6-0.6-2.4c0-1.2,0.4-2.2,1.2-3c0.8-0.8,1.7-1.2,2.8-1.2h20.3c1.6,0,2.8,0.4,3.8,1.2c0.9,0.8,1.7,1.6,2.4,2.6  l29,42.7l29.2-42.7c0.5-0.9,1.3-1.8,2.3-2.6c1-0.8,2.3-1.2,3.9-1.2h19.2c1.2,0,2.2,0.4,3,1.2s1.2,1.8,1.2,3c0,0.8-0.3,1.6-0.8,2.4  l-41.3,61.2l44.2,64c0.3,0.4,0.5,0.8,0.6,1.2c0.1,0.4,0.2,0.8,0.2,1.2c0,1.2-0.4,2.2-1.3,3c-0.9,0.8-1.8,1.2-2.9,1.2h-20.9  c-1.6,0-2.8-0.4-3.8-1.2c-0.9-0.8-1.6-1.6-2.2-2.4l-31.6-44.6l-31,44.6c-0.5,0.8-1.3,1.6-2.2,2.4c-0.9,0.8-2.2,1.2-4,1.2H1574.1z"></path>	<path d="M1747.6,310.3c-1.3,0-2.4-0.5-3.4-1.4c-0.9-0.9-1.4-2-1.4-3.4V196.4h-36.5c-1.3,0-2.4-0.5-3.4-1.4c-0.9-0.9-1.4-2-1.4-3.4  V177c0-1.4,0.5-2.6,1.4-3.6c0.9-0.9,2-1.4,3.4-1.4h100.7c1.4,0,2.6,0.5,3.6,1.4c0.9,0.9,1.4,2.1,1.4,3.6v14.6  c0,1.3-0.5,2.4-1.4,3.4c-0.9,0.9-2.1,1.4-3.6,1.4h-36.3v109.2c0,1.3-0.5,2.4-1.4,3.4c-0.9,0.9-2.1,1.4-3.6,1.4H1747.6z"></path></g><g>	<g>		<path class="st0" d="M334.6,384.6c-0.1,0-0.2,0.1-0.4,0.1l-3,1L334.6,384.6z"></path>		<path class="st0" d="M427.8,238.2l-7.5-4l0.1,0c-7.7-4.5-23.3-13.3-40-23l0,0l-18.7-10.6c-7.8-4.4-17.6,0.6-18.4,9.5l0,0.2   c0,0.1,0,0.1,0,0.2c-5,55.7-42.8,106.5-99.6,124.3c-10,3.1-19.9,4.7-29.5,4.9l0,0.1c24.3,38.9,71,59.9,120.2,44.8l0,0   c56.7-17.8,97.1-73.9,101.3-132.4C436,246.5,432.9,241,427.8,238.2z"></path>	</g>	<g>		<path class="st1" d="M334.3,384.8l-0.1,0c0.2,0,0.3-0.1,0.5-0.1L334.3,384.8z"></path>		<path class="st1" d="M197.1,286.8l0-0.2c-3.8-55.4,26.5-112.6,74.3-140.3l0.2-0.1l19.3-9.7c7.9-4,8.1-15.3,0.3-19.5l-20.7-11.2   l0,0c-15.9-8.5-30.6-16.5-38.9-20.9c-4.2-2.2-8.9-2.8-13.6-1.9c-63,13.1-108.6,74.7-111.8,137.8l-0.2,7.6   c0,92.9,75.3,168.2,168.2,168.2c19.7,0,39.5-4.6,57.1-10.8l2.9-1C265.7,405.9,202,356.7,197.1,286.8z"></path>	</g>	<path class="st2" d="M241.2,345.7"></path></g></svg>