<svg width="328" height="199" viewBox="0 0 328 199" fill="none" xmlns="http://www.w3.org/2000/svg">
<path fill-rule="evenodd" clip-rule="evenodd" d="M174.091 121.163V98.9618H163.735V121.163H158.29V98.9618H154.286V94.5646H158.29V89.8992C158.29 84.2686 161.706 80.9438 167.098 80.9438C168.112 80.9438 169.126 81.1047 170.087 81.4265L169.126 86.1455C168.486 85.931 167.898 85.8773 167.311 85.8773C165.123 85.8773 163.735 87.3252 163.735 90.0065V94.5646H179.535V121.163H174.091ZM173.717 90.3283V84.1614H179.909V90.3283H173.717ZM192.401 83.625V103.52L201.422 94.5645H208.095L198.753 103.788L209.696 121.162H203.344L194.856 107.649L192.401 110.116V121.162H186.956V83.625H192.401ZM236.387 109.043H215.408C215.621 113.762 218.771 117.141 223.468 117.141C227.792 117.141 229.821 114.781 231.369 111.617L235.586 114.138C233.13 119.232 229.287 121.913 223.308 121.913C216.048 121.913 209.963 116.175 209.963 107.863C209.963 99.5516 216.048 93.8137 223.575 93.8137C231.262 93.8137 236.387 99.3371 236.387 107.113V109.043ZM223.468 98.2109C219.518 98.2109 216.422 100.999 215.407 104.86H231.208C230.781 100.517 227.151 98.2109 223.468 98.2109ZM266.013 103.091V121.162H260.568V104.7C260.568 101.053 258.433 98.8545 254.696 98.8545C250.906 98.8545 247.757 102.072 247.757 107.113V121.162H242.312V94.5645H247.757V99.0154C249.625 95.9051 252.935 93.8137 256.778 93.8137C261.956 93.8137 266.013 97.0848 266.013 103.091Z" fill="#272727"/>
<path fill-rule="evenodd" clip-rule="evenodd" d="M92.2093 96.2788C90.3555 96.2767 88.5787 95.548 87.2702 94.2531C85.9617 92.9583 85.2289 91.2036 85.2332 89.3756V86.7064C85.2152 71.7152 97.5092 59.54 112.711 59.4937C118.192 59.4858 123.547 61.1063 128.08 64.1438C131.213 66.2952 132.017 70.5268 129.886 73.6506C127.755 76.7743 123.478 77.6355 120.276 75.5852C118.045 74.0897 115.409 73.2932 112.711 73.3001C105.225 73.3266 99.1741 79.3243 99.1854 86.7064V89.3876C99.1886 91.2153 98.4554 92.9693 97.1472 94.264C95.8389 95.5586 94.0627 96.2876 92.2093 96.2908" fill="#BDBDBD"/>
<path fill-rule="evenodd" clip-rule="evenodd" d="M115.41 102.758H99.1774V86.7066C99.2644 84.1944 97.9549 81.8354 95.7619 80.5539C93.569 79.2724 90.8418 79.2724 88.6489 80.5539C86.456 81.8354 85.1464 84.1944 85.2334 86.7066V102.77H69.0004C65.1342 102.77 62 105.861 62 109.673C62 113.486 65.1342 116.577 69.0004 116.577H85.2334V132.64C85.1723 135.137 86.488 137.47 88.6709 138.736C90.8538 140.002 93.561 140.002 95.7439 138.736C97.9269 137.47 99.2426 135.137 99.1815 132.64V116.565H115.414C119.281 116.565 122.415 113.474 122.415 109.661C122.415 105.849 119.281 102.758 115.414 102.758" fill="#272727"/>
</svg>
