<?xml version="1.0" standalone="no"?>
<!DOCTYPE svg PUBLIC "-//W3C//DTD SVG 20010904//EN"
 "http://www.w3.org/TR/2001/REC-SVG-20010904/DTD/svg10.dtd">
<svg version="1.0" xmlns="http://www.w3.org/2000/svg"
 width="1200.000000pt" height="466.000000pt" viewBox="0 0 1200.000000 466.000000"
 preserveAspectRatio="xMidYMid meet">

<g transform="translate(0.000000,466.000000) scale(0.100000,-0.100000)"
fill="#000000" stroke="none">
<path d="M390 3536 l0 -156 573 0 c604 0 654 -3 738 -46 95 -48 139 -133 139
-270 0 -73 -4 -89 -32 -145 -51 -98 -144 -153 -299 -178 -38 -7 -276 -11 -596
-11 l-533 0 0 -148 0 -149 158 -6 c241 -10 935 -8 1042 3 211 23 353 80 458
187 79 80 115 143 142 250 26 98 28 279 5 368 -47 182 -178 321 -368 391 -157
56 -164 57 -819 61 l-608 4 0 -155z"/>
<path d="M3585 3676 c-166 -33 -275 -128 -322 -281 -16 -52 -18 -97 -18 -345
0 -271 2 -288 23 -348 52 -145 133 -219 279 -257 48 -13 172 -15 790 -15 l733
0 0 150 0 150 -632 0 c-350 0 -651 5 -673 10 -24 5 -51 21 -67 40 l-28 30 0
236 c0 272 4 292 71 318 34 14 120 16 684 16 l646 0 -3 153 -3 152 -710 1
c-511 1 -727 -2 -770 -10z"/>
<path d="M6204 3676 c-3 -7 -2 -243 3 -523 l8 -509 26 -49 c30 -60 100 -116
173 -139 97 -32 218 -39 612 -33 424 7 428 7 540 81 84 56 141 119 511 561
193 231 387 463 432 515 44 52 81 98 81 102 0 4 -107 7 -238 8 l-238 1 -316
-373 c-173 -205 -346 -405 -382 -445 -111 -119 -185 -143 -451 -143 -208 0
-262 18 -308 103 -21 41 -22 52 -27 447 l-5 405 -208 2 c-167 2 -209 0 -213
-11z"/>
<path d="M9332 3173 l3 -508 24 -53 c29 -65 95 -124 165 -151 94 -35 189 -41
613 -38 l408 2 57 27 c141 66 180 105 533 528 231 277 505 604 573 683 14 16
3 17 -229 17 l-244 0 -312 -368 c-171 -202 -341 -400 -378 -439 -113 -123
-193 -147 -476 -141 -154 3 -178 5 -209 24 -41 23 -76 71 -90 123 -6 21 -10
193 -10 419 l0 382 -216 0 -215 0 3 -507z"/>
<path d="M1720 2182 c105 -71 212 -213 251 -333 33 -104 33 -233 -1 -304 -44
-90 -119 -148 -250 -191 -51 -17 -107 -19 -698 -22 l-643 -3 3 -152 3 -152
620 -2 c341 -1 661 3 712 8 403 41 616 240 639 596 14 217 -65 403 -224 528
l-57 45 -190 -1 c-182 0 -189 -1 -165 -17z"/>
<path d="M3242 1793 c4 -382 5 -412 25 -470 43 -130 114 -211 231 -266 l67
-32 753 -3 752 -3 0 155 0 155 -622 3 c-690 3 -648 -1 -716 69 -57 59 -62 95
-62 466 l0 333 -216 0 -215 0 3 -407z"/>
<path d="M6514 2186 c-128 -29 -224 -102 -275 -211 l-29 -60 0 -448 0 -447
210 0 210 1 0 380 c0 429 1 437 67 467 32 14 72 17 273 17 202 0 243 -3 290
-19 51 -17 83 -46 470 -432 l416 -415 237 1 c130 1 237 4 237 8 0 4 -122 135
-271 292 -150 157 -375 394 -502 527 -126 134 -250 256 -275 273 -25 17 -76
40 -112 52 -62 21 -86 22 -475 24 -319 3 -424 0 -471 -10z"/>
<path d="M9660 2189 c-129 -22 -239 -102 -291 -212 l-29 -62 0 -447 0 -448
210 0 210 0 0 388 c0 364 1 389 19 418 32 52 68 59 321 59 338 0 261 46 760
-452 l416 -413 238 0 c144 0 236 4 234 9 -4 11 -869 924 -969 1022 -37 36 -88
76 -113 88 -106 52 -125 54 -551 57 -224 1 -424 -2 -455 -7z"/>
</g>
</svg>
