<svg width="270" height="69" viewBox="0 0 270 69" fill="none" xmlns="http://www.w3.org/2000/svg">
<g clip-path="url(#clip0_24_2)">
<path d="M30.77 61.54C47.76 61.54 61.54 47.76 61.54 30.77C61.54 13.78 47.76 0 30.77 0C13.78 0 0 13.78 0 30.77C0 47.76 13.77 61.54 30.77 61.54Z" fill="#BDBDBD"/>
<path d="M20.51 18.8C13.9 18.8 8.54004 24.16 8.54004 30.77C8.54004 37.38 13.89 42.73 20.51 42.73H22.22V38.29H20.51C16.36 38.29 12.99 34.92 12.99 30.77C12.99 26.62 16.36 23.25 20.51 23.25H24.62V46.5C24.62 48.95 26.61 50.94 29.06 50.94V18.8H20.51ZM41.03 42.73C47.64 42.73 53 37.37 53 30.77C53 24.17 47.65 18.81 41.03 18.81H39.32V23.25H41.03C45.18 23.25 48.55 26.62 48.55 30.77C48.55 34.92 45.18 38.29 41.03 38.29H36.92V15.04C36.92 12.59 34.93 10.6 32.48 10.6V42.73H41.03Z" fill="white"/>
<path d="M90.75 69H85.99V56.95H85.91C84.68 58.85 82.26 60.04 79.6 60.04C73.81 60.04 70.24 55.44 70.24 49.89C70.24 44.34 74.05 39.89 79.48 39.89C82.97 39.89 85.11 41.59 86.06 43.1H86.18V40.44H90.74V69H90.75ZM80.56 56.07C84.05 56.07 86.15 52.94 86.15 49.96C86.15 46.98 84.05 43.77 80.56 43.77C76.88 43.77 75.09 46.9 75.09 49.88C75.09 52.85 76.87 56.07 80.56 56.07ZM112.11 59.48H107.59V56.42H107.51C106.68 58.32 104.42 60.03 101.6 60.03C96.64 60.03 94.58 56.22 94.58 52.34V40.44H99.34V50.99C99.34 53.25 99.85 56.06 102.91 56.06C105.97 56.06 107.35 53.44 107.35 50.91V40.44H112.11V59.47V59.48ZM116.89 40.03H121.65V59.07H116.89V40.03ZM139.44 45.72C138.69 44.65 137.06 43.85 135.51 43.85C132.02 43.85 130.27 46.98 130.27 49.96C130.27 52.94 132.06 56.07 135.66 56.07C137.13 56.07 138.75 55.47 139.67 54.37L142.64 57.38C141.05 59.08 138.43 60.04 135.62 60.04C129.99 60.04 125.31 56.31 125.31 49.97C125.31 43.63 129.91 39.9 135.5 39.9C138.28 39.9 141.17 41.01 142.68 42.87L139.43 45.72H139.44ZM145.04 29.5H149.8V48.45H149.92L157.14 40.44H163.25L155 49.05L163.77 59.48H157.47L149.93 49.72H149.81V59.48H145.05V29.51L145.04 29.5ZM170.69 29.5V42.87H170.81C171.8 41.64 173.7 39.9 177.2 39.9C182.63 39.9 186.44 44.26 186.44 49.9C186.44 55.54 182.87 60.05 177.08 60.05C174.42 60.05 171.84 58.82 170.54 56.64H170.46V59.5H165.94V29.51H170.7L170.69 29.5ZM176.12 43.78C172.63 43.78 170.53 46.99 170.53 49.97C170.53 52.95 172.63 56.08 176.12 56.08C179.81 56.08 181.59 52.87 181.59 49.89C181.59 46.91 179.81 43.78 176.12 43.78ZM198.84 39.89C204.59 39.89 209.19 43.9 209.19 49.89C209.19 55.88 204.59 60.04 198.84 60.04C193.09 60.04 188.49 55.88 188.49 49.89C188.49 43.9 193.09 39.89 198.84 39.89ZM198.84 56.07C202.61 56.07 204.35 52.86 204.35 49.88C204.35 46.9 202.61 43.77 198.84 43.77C195.07 43.77 193.33 46.9 193.33 49.88C193.33 52.86 195.07 56.07 198.84 56.07ZM221.62 39.89C227.37 39.89 231.97 43.9 231.97 49.89C231.97 55.88 227.37 60.04 221.62 60.04C215.87 60.04 211.27 55.88 211.27 49.89C211.27 43.9 215.87 39.89 221.62 39.89ZM221.62 56.07C225.39 56.07 227.13 52.86 227.13 49.88C227.13 46.9 225.39 43.77 221.62 43.77C217.85 43.77 216.11 46.9 216.11 49.88C216.11 52.85 217.85 56.07 221.62 56.07ZM234.85 29.5H239.61V48.45H239.73L246.95 40.44H253.05L244.81 49.05L253.57 59.48H247.27L239.73 49.72H239.61V59.48H234.85V29.51V29.5ZM266.56 45.52C265.73 44.41 264.14 43.46 262.4 43.46C260.9 43.46 259.34 44.02 259.34 45.53C259.34 47.04 260.81 47.4 263.46 48.03C266.28 48.71 269.61 49.97 269.61 53.7C269.61 58.34 265.84 60.05 261.68 60.05C258.75 60.05 255.69 58.94 253.86 56.92L256.99 53.99C258.02 55.34 259.81 56.37 261.87 56.37C263.26 56.37 264.93 55.81 264.93 54.11C264.93 52.52 263.46 52.05 260.57 51.37C257.75 50.69 254.94 49.55 254.94 45.98C254.94 41.73 258.75 39.92 262.52 39.92C265.25 39.92 268.11 40.87 269.66 42.81L266.58 45.55L266.56 45.52ZM122.38 14.46C122.38 19.29 126.24 22.81 131.15 22.81C136.06 22.81 139.93 19.29 139.93 14.46V3.38H135.17V13.9C135.17 16.5 133.43 18.25 131.14 18.25C128.85 18.25 127.1 16.51 127.1 13.9V3.38H122.35L122.38 14.46ZM152.65 7.83H158.33V22.43H163.08V7.83H168.75V3.38H152.65V7.83ZM149.57 3.38H144.82V22.44H149.57V3.38ZM103.19 7.83H108.87V22.43H113.62V7.83H119.29V3.38H103.2V7.83H103.19ZM78.25 3.38H73.5V22.44H78.25V3.38ZM100.69 11.35C100.69 6.52 96.82 3 91.91 3C87 3 83.13 6.52 83.13 11.35V22.43H87.88V11.91C87.88 9.31 89.62 7.56 91.91 7.56C94.2 7.56 95.94 9.3 95.94 11.91V22.43H100.69V11.35Z" fill="#BDBDBD"/>
</g>
<defs>
<clipPath id="clip0_24_2">
<rect width="269.65" height="69" fill="white"/>
</clipPath>
</defs>
</svg>
