<?xml version="1.0" encoding="UTF-8"?><svg id="a" xmlns="http://www.w3.org/2000/svg" viewBox="0 0 269.65 69"><defs><style>.b,.c,.d{stroke-width:0px;}.c{fill:#2ca01c;}.d{fill:#fff;}</style></defs><path class="c" d="m30.77,61.54c16.99,0,30.77-13.78,30.77-30.77S47.76,0,30.77,0,0,13.78,0,30.77s13.77,30.77,30.77,30.77Z"/><path class="d" d="m20.51,18.8c-6.61,0-11.97,5.36-11.97,11.97s5.35,11.96,11.97,11.96h1.71v-4.44h-1.71c-4.15,0-7.52-3.37-7.52-7.52,0-4.15,3.37-7.52,7.52-7.52h4.11v23.25c0,2.45,1.99,4.44,4.44,4.44V18.8h-8.55,0Zm20.52,23.93c6.61,0,11.97-5.36,11.97-11.96s-5.35-11.96-11.97-11.96h-1.71v4.44h1.71c4.15,0,7.52,3.37,7.52,7.52s-3.37,7.52-7.52,7.52h-4.11V15.04c0-2.45-1.99-4.44-4.44-4.44v32.13h8.55s0,0,0,0Z"/><path class="b" d="m90.75,69h-4.76v-12.05h-.08c-1.23,1.9-3.65,3.09-6.31,3.09-5.79,0-9.36-4.6-9.36-10.15s3.81-10,9.24-10c3.49,0,5.63,1.7,6.58,3.21h.12v-2.66h4.56v28.56h0s0,0,0,0Zm-10.19-12.93c3.49,0,5.59-3.13,5.59-6.11s-2.1-6.19-5.59-6.19c-3.68,0-5.47,3.13-5.47,6.11,0,2.97,1.78,6.19,5.47,6.19h0Zm31.55,3.41h-4.52v-3.06h-.08c-.83,1.9-3.09,3.61-5.91,3.61-4.96,0-7.02-3.81-7.02-7.69v-11.9h4.76v10.55c0,2.26.51,5.07,3.57,5.07s4.44-2.62,4.44-5.15v-10.47h4.76v19.03s0,0,0,0Zm4.78-19.45h4.76v19.04h-4.76s0-19.04,0-19.04Zm22.55,5.69c-.75-1.07-2.38-1.87-3.93-1.87-3.49,0-5.24,3.13-5.24,6.11s1.79,6.11,5.39,6.11c1.47,0,3.09-.6,4.01-1.7l2.97,3.01c-1.59,1.7-4.21,2.66-7.02,2.66-5.63,0-10.31-3.73-10.31-10.07s4.6-10.07,10.19-10.07c2.78,0,5.67,1.11,7.18,2.97l-3.25,2.85h0Zm5.6-16.22h4.76v18.95h.12l7.22-8.01h6.11l-8.25,8.61,8.77,10.43h-6.3l-7.54-9.76h-.12v9.76h-4.76v-29.97h0Zm25.65,0v13.37h.12c.99-1.23,2.89-2.97,6.39-2.97,5.43,0,9.24,4.36,9.24,10s-3.57,10.15-9.36,10.15c-2.66,0-5.24-1.23-6.54-3.41h-.08v2.86h-4.52v-29.99h4.76Zm5.43,14.28c-3.49,0-5.59,3.21-5.59,6.19s2.1,6.11,5.59,6.11c3.69,0,5.47-3.21,5.47-6.19s-1.78-6.11-5.47-6.11h0Zm22.72-3.89c5.75,0,10.35,4.01,10.35,10s-4.6,10.15-10.35,10.15-10.35-4.16-10.35-10.15,4.6-10,10.35-10Zm0,16.18c3.77,0,5.51-3.21,5.51-6.19s-1.74-6.11-5.51-6.11-5.51,3.13-5.51,6.11,1.74,6.19,5.51,6.19Zm22.78-16.18c5.75,0,10.35,4.01,10.35,10s-4.6,10.15-10.35,10.15-10.35-4.16-10.35-10.15,4.6-10,10.35-10Zm0,16.18c3.77,0,5.51-3.21,5.51-6.19s-1.74-6.11-5.51-6.11-5.51,3.13-5.51,6.11c0,2.97,1.74,6.19,5.51,6.19Zm13.23-26.57h4.76v18.95h.12l7.22-8.01h6.1l-8.24,8.61,8.76,10.43h-6.3l-7.54-9.76h-.12v9.76h-4.76v-29.97h0,0Zm31.71,16.02c-.83-1.11-2.42-2.06-4.16-2.06-1.5,0-3.06.56-3.06,2.07s1.47,1.87,4.12,2.5c2.82.68,6.15,1.94,6.15,5.67,0,4.64-3.77,6.35-7.93,6.35-2.93,0-5.99-1.11-7.82-3.13l3.13-2.93c1.03,1.35,2.82,2.38,4.88,2.38,1.39,0,3.06-.56,3.06-2.26,0-1.59-1.47-2.06-4.36-2.74-2.82-.68-5.63-1.82-5.63-5.39,0-4.25,3.81-6.06,7.58-6.06,2.73,0,5.59.95,7.14,2.89l-3.08,2.74h0ZM122.38,14.46c0,4.83,3.86,8.35,8.77,8.35s8.78-3.52,8.78-8.35V3.38h-4.76v10.52c0,2.6-1.74,4.35-4.03,4.35s-4.04-1.74-4.04-4.35V3.38h-4.75s.03,11.08.03,11.08Zm30.27-6.63h5.68v14.6h4.75V7.83h5.67V3.38h-16.1v4.45h0Zm-3.08-4.45h-4.75v19.06h4.75V3.38Zm-46.38,4.45h5.68v14.6h4.75V7.83h5.67V3.38h-16.09v4.45h0Zm-24.94-4.45h-4.75v19.06h4.75V3.38Zm22.44,7.97c0-4.83-3.87-8.35-8.78-8.35s-8.78,3.52-8.78,8.35v11.08h4.75v-10.52c0-2.6,1.74-4.35,4.03-4.35s4.03,1.74,4.03,4.35v10.52h4.75v-11.08s-.01,0-.01,0Z"/></svg>