<?xml version="1.0" standalone="no"?>
<!DOCTYPE svg PUBLIC "-//W3C//DTD SVG 20010904//EN"
 "http://www.w3.org/TR/2001/REC-SVG-20010904/DTD/svg10.dtd">
<svg version="1.0" xmlns="http://www.w3.org/2000/svg"
 width="575.000000pt" height="575.000000pt" viewBox="0 0 575.000000 575.000000"
 preserveAspectRatio="xMidYMid meet">

<g transform="translate(0.000000,575.000000) scale(0.100000,-0.100000)"
fill="#000000" stroke="none">
<path d="M3330 5401 c-70 -22 -186 -102 -243 -167 -28 -32 -28 -32 -105 -27
-42 3 -94 1 -116 -5 -38 -11 -40 -10 -94 39 -64 59 -126 92 -200 108 -87 18
-115 -13 -92 -100 16 -60 42 -107 85 -159 l36 -43 -23 -22 c-13 -12 -115 -105
-227 -206 -113 -101 -222 -200 -244 -219 -35 -32 -43 -50 -91 -205 l-53 -170
-174 -110 c-381 -240 -399 -253 -399 -279 0 -47 13 -51 220 -61 218 -10 215
11 27 -192 -89 -96 -166 -181 -170 -189 -10 -18 -7 -25 145 -262 l130 -203
-80 -127 c-44 -70 -86 -139 -92 -153 -11 -24 1 -65 105 -375 65 -192 122 -357
127 -366 13 -27 45 -40 67 -28 11 5 56 47 99 92 l80 82 44 -70 c25 -38 56 -87
70 -110 l26 -40 -84 -105 c-280 -345 -275 -338 -236 -371 9 -8 88 -41 174 -73
87 -31 158 -61 158 -66 0 -5 -13 -23 -28 -41 -60 -69 -152 -200 -152 -217 0
-25 24 -45 205 -168 286 -196 330 -226 342 -235 9 -7 3 -21 -23 -54 -40 -53
-42 -66 -12 -94 45 -41 61 -30 153 105 89 129 347 483 705 965 454 611 564
757 575 757 11 0 255 -273 255 -285 0 -18 -131 -467 -138 -472 -4 -3 -119 -3
-257 0 -137 3 -258 2 -267 -2 -24 -12 -32 -51 -17 -80 7 -12 59 -90 116 -171
58 -82 103 -150 101 -152 -3 -3 -438 -273 -679 -421 -161 -100 -177 -114 -161
-149 24 -52 48 -45 234 71 226 141 543 337 641 398 42 26 82 56 88 67 12 23 4
39 -113 206 -43 62 -78 115 -78 118 0 3 102 5 228 5 125 0 233 4 240 9 14 8
23 38 83 256 16 61 41 146 54 190 l24 80 348 -171 c191 -94 353 -177 360 -185
6 -8 50 -140 97 -294 48 -154 92 -295 97 -313 6 -18 17 -39 26 -47 21 -21 59
-18 76 6 18 24 20 15 -64 289 -61 198 -116 380 -126 414 -4 13 -130 80 -417
221 l-411 203 -75 83 c-41 46 -98 108 -126 139 -28 30 -65 71 -82 90 -42 49
-77 67 -97 50 -13 -11 -15 9 -15 191 l0 203 131 -137 c137 -144 167 -164 199
-131 10 11 88 156 174 324 85 168 199 391 253 495 59 117 94 197 91 207 -4 9
-137 116 -297 238 -160 122 -293 225 -296 230 -2 4 -29 130 -59 281 -54 272
-55 274 -88 301 -18 15 -175 125 -348 244 -173 118 -321 222 -329 229 -11 11
-6 22 29 66 53 67 90 143 90 187 0 24 -9 42 -29 63 -30 29 -54 34 -101 20z
m20 -110 c0 -17 -81 -130 -111 -155 -31 -26 -98 -50 -126 -44 -31 6 190 208
229 208 4 0 8 -4 8 -9z m-643 -129 c29 -29 53 -57 53 -63 0 -18 -61 -1 -88 24
-30 28 -82 102 -82 117 0 19 59 -21 117 -78z m879 -393 c190 -133 351 -248
359 -255 7 -7 23 -68 35 -136 13 -68 33 -172 46 -233 12 -60 19 -113 16 -117
-6 -5 -330 -34 -602 -53 -41 -3 -94 -8 -118 -11 l-43 -5 5 33 c3 18 8 58 10
88 3 30 10 114 16 185 l11 130 -79 225 c-44 124 -91 256 -106 293 -18 49 -22
69 -13 72 12 4 94 22 110 24 5 1 164 -108 353 -240z m-701 203 l120 -7 102
-285 103 -285 -6 -75 c-3 -41 -8 -88 -11 -104 l-5 -28 -152 6 c-83 4 -225 11
-316 16 -91 5 -219 12 -285 15 -293 13 -345 18 -345 29 1 6 16 64 34 129 32
112 36 119 82 160 26 23 146 133 267 243 213 197 219 202 255 197 20 -2 91 -7
157 -11z m-465 -857 c173 -8 360 -18 415 -21 55 -3 154 -9 220 -13 l120 -6 -4
-60 c-2 -33 -4 -61 -5 -62 -1 -1 -128 -28 -281 -60 -301 -62 -332 -64 -570
-50 -71 4 -255 14 -409 22 -153 7 -279 15 -281 17 -3 3 105 73 312 204 72 45
87 51 125 48 24 -2 185 -11 358 -19z m1953 -400 c141 -108 257 -201 257 -207
0 -18 -424 -848 -432 -846 -4 2 -115 110 -247 241 l-238 239 -7 71 c-10 112
-46 616 -46 641 0 23 4 23 193 38 105 8 208 16 228 17 31 1 63 -20 292 -194z
m-820 78 c4 -43 14 -161 22 -263 8 -102 19 -230 25 -285 5 -55 10 -113 10
-129 0 -23 20 -49 95 -125 l95 -97 0 -344 0 -344 -83 -110 c-80 -106 -268
-358 -518 -696 -63 -85 -161 -219 -218 -298 -57 -78 -108 -145 -113 -148 -4
-3 -60 102 -124 233 -117 239 -294 612 -294 618 0 2 18 1 41 -2 l41 -6 118
118 119 118 110 -87 c64 -50 119 -86 129 -84 11 2 38 46 74 118 32 66 62 114
70 113 7 0 37 -12 66 -24 39 -17 57 -21 70 -13 10 6 39 76 72 177 l55 167 64
-7 c55 -5 66 -4 78 12 21 29 16 63 -12 81 -18 12 -50 17 -117 18 l-92 1 -18
-50 c-9 -27 -33 -103 -53 -167 l-36 -118 -49 25 c-88 44 -94 41 -152 -84 l-51
-108 -108 86 c-60 48 -200 142 -311 210 -112 69 -204 125 -205 126 -2 1 -3 43
-4 93 l-1 92 151 167 c119 131 151 172 151 194 0 17 -7 32 -18 38 -10 5 -149
11 -309 12 -317 3 -323 2 -323 -52 0 -29 38 -89 167 -264 l73 -99 0 -91 0 -90
-176 -190 c-97 -104 -179 -194 -184 -198 -4 -5 -52 124 -106 287 -78 235 -96
300 -87 314 6 9 47 73 91 142 142 221 132 189 132 437 l0 213 128 -6 c70 -3
132 -7 138 -9 7 -2 12 -30 13 -67 1 -87 16 -98 127 -98 117 0 124 8 124 138 0
82 -3 102 -18 115 -14 13 -59 17 -260 23 -134 4 -245 11 -248 15 -3 5 -2 54 2
110 l7 102 121 -7 c67 -3 173 -9 236 -14 143 -9 337 -9 370 0 14 4 79 18 145
31 66 14 188 39 270 56 129 26 286 44 441 50 l41 1 6 -77z m-1755 -609 l-3
-136 -103 162 -104 162 43 47 c24 25 71 74 104 109 l60 63 3 -136 c1 -74 1
-196 0 -271z m693 -965 c99 -62 182 -116 185 -120 3 -5 -37 -50 -88 -99 l-93
-91 -34 38 c-18 21 -44 55 -58 76 -43 67 -74 62 -104 -18 -34 -89 -38 -88
-108 21 -34 53 -63 100 -64 104 -2 8 170 200 180 200 3 0 86 -50 184 -111z
m-143 -441 c11 -24 50 -106 87 -183 37 -77 98 -205 135 -285 37 -80 102 -216
144 -303 l75 -158 -75 -105 c-47 -65 -80 -102 -87 -97 -30 17 -425 285 -450
306 l-29 22 90 117 c50 64 95 126 102 138 23 43 -4 61 -188 124 l-170 58 166
203 c92 112 170 204 173 204 4 1 16 -18 27 -41z"/>
<path d="M2727 3592 c-22 -24 -22 -55 1 -75 15 -13 52 -18 190 -23 l172 -7 0
-101 c0 -142 4 -146 125 -146 125 0 125 0 125 141 l0 109 48 0 c62 0 91 26 76
68 -9 26 -12 27 -104 33 -52 4 -212 10 -356 13 -246 6 -261 6 -277 -12z"/>
<path d="M900 3635 c-41 -18 -155 -65 -253 -105 -115 -48 -183 -81 -192 -94
-12 -19 -30 -106 -89 -417 -12 -64 -19 -126 -15 -136 10 -27 396 -397 418
-401 10 -2 60 13 110 32 62 23 93 30 96 23 1 -7 11 -50 20 -97 10 -47 28 -132
41 -190 13 -57 22 -105 21 -106 -1 -1 -54 -12 -117 -24 -63 -12 -125 -28 -136
-36 -12 -7 -36 -48 -54 -91 -18 -43 -74 -176 -126 -295 -52 -120 -94 -224 -94
-233 0 -9 20 -71 44 -138 25 -67 83 -227 130 -355 l85 -232 -39 -86 c-22 -47
-40 -94 -40 -103 0 -35 58 -67 84 -48 24 18 99 197 100 237 0 19 -25 103 -56
185 -31 83 -88 237 -126 342 l-70 193 108 252 c60 139 114 260 119 270 5 9 29
19 53 23 24 4 124 22 223 41 99 19 182 34 186 34 6 0 39 -171 39 -202 0 -12
-31 -21 -142 -42 -79 -15 -167 -32 -196 -37 -56 -11 -78 -34 -67 -69 15 -47
23 -47 360 9 61 10 113 17 116 15 8 -4 33 -203 27 -209 -4 -5 -33 -9 -243 -39
-142 -21 -182 -32 -195 -56 -12 -22 2 -68 24 -76 12 -5 171 14 251 30 55 11
177 27 180 24 1 -2 5 -30 9 -63 3 -33 9 -74 12 -92 7 -35 7 -35 -81 -48 -138
-21 -273 -50 -287 -63 -24 -20 -23 -55 2 -77 18 -16 24 -16 106 -1 48 9 89 14
91 12 2 -2 17 -66 34 -142 33 -145 47 -174 85 -174 22 0 54 23 54 39 0 10 -50
262 -56 283 -4 13 8 18 67 29 97 17 102 24 94 118 -3 42 -8 87 -10 101 -2 14
-11 104 -20 200 -29 312 -31 319 -81 320 -22 0 -29 24 -55 208 -6 47 -19 92
-28 104 l-17 20 -119 -21 c-65 -11 -119 -20 -120 -18 -1 1 -19 90 -40 197 -21
107 -40 202 -43 211 -3 13 19 24 107 54 61 20 120 44 131 53 20 16 35 80 120
505 6 31 6 55 0 66 -5 10 -102 109 -216 220 -144 140 -213 201 -228 200 -11 0
-55 -16 -96 -34z m263 -254 l170 -168 -43 -214 c-23 -118 -46 -221 -50 -229
-6 -12 -370 -155 -436 -172 -7 -2 -87 69 -179 157 -156 149 -166 162 -161 190
23 130 88 431 94 433 4 2 95 40 202 86 107 46 204 84 214 85 13 1 80 -59 189
-168z"/>
</g>
</svg>
